<svg width="170" height="138" viewBox="0 0 170 138" fill="none" xmlns="http://www.w3.org/2000/svg">
<g id="arrow-dot">
<g id="DOTS">
<g id="Group 5">
<g id="Ellipse 2">
<ellipse cx="9.35549" cy="7.5" rx="2.35549" ry="2.5" fill="#0B0B0B"/>
<ellipse cx="9.35549" cy="7.5" rx="2.35549" ry="2.5" fill="#1C1C1C"/>
<ellipse cx="9.35549" cy="7.5" rx="2.35549" ry="2.5" fill="#181818"/>
<ellipse cx="9.35549" cy="7.5" rx="2.35549" ry="2.5" fill="#3D3D3D"/>
<ellipse cx="9.35549" cy="7.5" rx="2.35549" ry="2.5" fill="#787878"/>
</g>
<g id="Ellipse 5">
<ellipse cx="29.1416" cy="7.5" rx="2.35549" ry="2.5" fill="#0B0B0B"/>
<ellipse cx="29.1416" cy="7.5" rx="2.35549" ry="2.5" fill="#1C1C1C"/>
<ellipse cx="29.1416" cy="7.5" rx="2.35549" ry="2.5" fill="#181818"/>
<ellipse cx="29.1416" cy="7.5" rx="2.35549" ry="2.5" fill="#3D3D3D"/>
<ellipse cx="29.1416" cy="7.5" rx="2.35549" ry="2.5" fill="#787878"/>
</g>
<g id="Ellipse 4">
<ellipse cx="48.9278" cy="7.5" rx="2.35549" ry="2.5" fill="#0B0B0B"/>
<ellipse cx="48.9278" cy="7.5" rx="2.35549" ry="2.5" fill="#1C1C1C"/>
<ellipse cx="48.9278" cy="7.5" rx="2.35549" ry="2.5" fill="#181818"/>
<ellipse cx="48.9278" cy="7.5" rx="2.35549" ry="2.5" fill="#3D3D3D"/>
<ellipse cx="48.9278" cy="7.5" rx="2.35549" ry="2.5" fill="#787878"/>
</g>
<g id="Ellipse 3">
<ellipse cx="68.7139" cy="7.5" rx="2.35549" ry="2.5" fill="#0B0B0B"/>
<ellipse cx="68.7139" cy="7.5" rx="2.35549" ry="2.5" fill="#1C1C1C"/>
<ellipse cx="68.7139" cy="7.5" rx="2.35549" ry="2.5" fill="#181818"/>
<ellipse cx="68.7139" cy="7.5" rx="2.35549" ry="2.5" fill="#3D3D3D"/>
<ellipse cx="68.7139" cy="7.5" rx="2.35549" ry="2.5" fill="#787878"/>
</g>
<g id="Ellipse 6">
<ellipse cx="88.5" cy="7.5" rx="2.35549" ry="2.5" fill="#0B0B0B"/>
<ellipse cx="88.5" cy="7.5" rx="2.35549" ry="2.5" fill="#1C1C1C"/>
<ellipse cx="88.5" cy="7.5" rx="2.35549" ry="2.5" fill="#181818"/>
<ellipse cx="88.5" cy="7.5" rx="2.35549" ry="2.5" fill="#3D3D3D"/>
<ellipse cx="88.5" cy="7.5" rx="2.35549" ry="2.5" fill="#787878"/>
</g>
<g id="Ellipse 7">
<ellipse cx="108.286" cy="7.5" rx="2.35549" ry="2.5" fill="#0B0B0B"/>
<ellipse cx="108.286" cy="7.5" rx="2.35549" ry="2.5" fill="#1C1C1C"/>
<ellipse cx="108.286" cy="7.5" rx="2.35549" ry="2.5" fill="#181818"/>
<ellipse cx="108.286" cy="7.5" rx="2.35549" ry="2.5" fill="#3D3D3D"/>
<ellipse cx="108.286" cy="7.5" rx="2.35549" ry="2.5" fill="#787878"/>
</g>
<g id="Ellipse 8">
<ellipse cx="128.072" cy="7.5" rx="2.35549" ry="2.5" fill="#0B0B0B"/>
<ellipse cx="128.072" cy="7.5" rx="2.35549" ry="2.5" fill="#1C1C1C"/>
<ellipse cx="128.072" cy="7.5" rx="2.35549" ry="2.5" fill="#181818"/>
<ellipse cx="128.072" cy="7.5" rx="2.35549" ry="2.5" fill="#3D3D3D"/>
<ellipse cx="128.072" cy="7.5" rx="2.35549" ry="2.5" fill="#787878"/>
</g>
<g id="Ellipse 9">
<ellipse cx="147.858" cy="7.5" rx="2.35549" ry="2.5" fill="#0B0B0B"/>
<ellipse cx="147.858" cy="7.5" rx="2.35549" ry="2.5" fill="#1C1C1C"/>
<ellipse cx="147.858" cy="7.5" rx="2.35549" ry="2.5" fill="#181818"/>
<ellipse cx="147.858" cy="7.5" rx="2.35549" ry="2.5" fill="#3D3D3D"/>
<ellipse cx="147.858" cy="7.5" rx="2.35549" ry="2.5" fill="#787878"/>
</g>
<g id="Ellipse 10">
<ellipse cx="167.645" cy="7.5" rx="2.35549" ry="2.5" fill="#0B0B0B"/>
<ellipse cx="167.645" cy="7.5" rx="2.35549" ry="2.5" fill="#1C1C1C"/>
<ellipse cx="167.645" cy="7.5" rx="2.35549" ry="2.5" fill="#181818"/>
<ellipse cx="167.645" cy="7.5" rx="2.35549" ry="2.5" fill="#3D3D3D"/>
<ellipse cx="167.645" cy="7.5" rx="2.35549" ry="2.5" fill="#787878"/>
</g>
</g>
<g id="Group 4">
<g id="Ellipse 2_2">
<ellipse cx="9.35549" cy="27.5" rx="2.35549" ry="2.5" fill="#0B0B0B"/>
<ellipse cx="9.35549" cy="27.5" rx="2.35549" ry="2.5" fill="#1C1C1C"/>
<ellipse cx="9.35549" cy="27.5" rx="2.35549" ry="2.5" fill="#181818"/>
<ellipse cx="9.35549" cy="27.5" rx="2.35549" ry="2.5" fill="#3D3D3D"/>
<ellipse cx="9.35549" cy="27.5" rx="2.35549" ry="2.5" fill="#787878"/>
</g>
<g id="Ellipse 5_2">
<ellipse cx="29.1416" cy="27.5" rx="2.35549" ry="2.5" fill="#0B0B0B"/>
<ellipse cx="29.1416" cy="27.5" rx="2.35549" ry="2.5" fill="#1C1C1C"/>
<ellipse cx="29.1416" cy="27.5" rx="2.35549" ry="2.5" fill="#181818"/>
<ellipse cx="29.1416" cy="27.5" rx="2.35549" ry="2.5" fill="#3D3D3D"/>
<ellipse cx="29.1416" cy="27.5" rx="2.35549" ry="2.5" fill="#787878"/>
</g>
<g id="Ellipse 4_2">
<ellipse cx="48.9278" cy="27.5" rx="2.35549" ry="2.5" fill="#0B0B0B"/>
<ellipse cx="48.9278" cy="27.5" rx="2.35549" ry="2.5" fill="#1C1C1C"/>
<ellipse cx="48.9278" cy="27.5" rx="2.35549" ry="2.5" fill="#181818"/>
<ellipse cx="48.9278" cy="27.5" rx="2.35549" ry="2.5" fill="#3D3D3D"/>
<ellipse cx="48.9278" cy="27.5" rx="2.35549" ry="2.5" fill="#787878"/>
</g>
<g id="Ellipse 3_2">
<ellipse cx="68.7139" cy="27.5" rx="2.35549" ry="2.5" fill="#0B0B0B"/>
<ellipse cx="68.7139" cy="27.5" rx="2.35549" ry="2.5" fill="#1C1C1C"/>
<ellipse cx="68.7139" cy="27.5" rx="2.35549" ry="2.5" fill="#181818"/>
<ellipse cx="68.7139" cy="27.5" rx="2.35549" ry="2.5" fill="#3D3D3D"/>
<ellipse cx="68.7139" cy="27.5" rx="2.35549" ry="2.5" fill="#787878"/>
</g>
<g id="Ellipse 6_2">
<ellipse cx="88.5" cy="27.5" rx="2.35549" ry="2.5" fill="#0B0B0B"/>
<ellipse cx="88.5" cy="27.5" rx="2.35549" ry="2.5" fill="#1C1C1C"/>
<ellipse cx="88.5" cy="27.5" rx="2.35549" ry="2.5" fill="#181818"/>
<ellipse cx="88.5" cy="27.5" rx="2.35549" ry="2.5" fill="#3D3D3D"/>
<ellipse cx="88.5" cy="27.5" rx="2.35549" ry="2.5" fill="#787878"/>
</g>
<g id="Ellipse 7_2">
<ellipse cx="108.286" cy="27.5" rx="2.35549" ry="2.5" fill="#0B0B0B"/>
<ellipse cx="108.286" cy="27.5" rx="2.35549" ry="2.5" fill="#1C1C1C"/>
<ellipse cx="108.286" cy="27.5" rx="2.35549" ry="2.5" fill="#181818"/>
<ellipse cx="108.286" cy="27.5" rx="2.35549" ry="2.5" fill="#3D3D3D"/>
<ellipse cx="108.286" cy="27.5" rx="2.35549" ry="2.5" fill="#787878"/>
</g>
<g id="Ellipse 8_2">
<ellipse cx="128.072" cy="27.5" rx="2.35549" ry="2.5" fill="#0B0B0B"/>
<ellipse cx="128.072" cy="27.5" rx="2.35549" ry="2.5" fill="#1C1C1C"/>
<ellipse cx="128.072" cy="27.5" rx="2.35549" ry="2.5" fill="#181818"/>
<ellipse cx="128.072" cy="27.5" rx="2.35549" ry="2.5" fill="#3D3D3D"/>
<ellipse cx="128.072" cy="27.5" rx="2.35549" ry="2.5" fill="#787878"/>
</g>
<g id="Ellipse 9_2">
<ellipse cx="147.858" cy="27.5" rx="2.35549" ry="2.5" fill="#0B0B0B"/>
<ellipse cx="147.858" cy="27.5" rx="2.35549" ry="2.5" fill="#1C1C1C"/>
<ellipse cx="147.858" cy="27.5" rx="2.35549" ry="2.5" fill="#181818"/>
<ellipse cx="147.858" cy="27.5" rx="2.35549" ry="2.5" fill="#3D3D3D"/>
<ellipse cx="147.858" cy="27.5" rx="2.35549" ry="2.5" fill="#787878"/>
</g>
<g id="Ellipse 10_2">
<ellipse cx="167.645" cy="27.5" rx="2.35549" ry="2.5" fill="#0B0B0B"/>
<ellipse cx="167.645" cy="27.5" rx="2.35549" ry="2.5" fill="#1C1C1C"/>
<ellipse cx="167.645" cy="27.5" rx="2.35549" ry="2.5" fill="#181818"/>
<ellipse cx="167.645" cy="27.5" rx="2.35549" ry="2.5" fill="#3D3D3D"/>
<ellipse cx="167.645" cy="27.5" rx="2.35549" ry="2.5" fill="#787878"/>
</g>
</g>
<g id="Group 6">
<g id="Ellipse 2_3">
<ellipse cx="9.35549" cy="45.5" rx="2.35549" ry="2.5" fill="#0B0B0B"/>
<ellipse cx="9.35549" cy="45.5" rx="2.35549" ry="2.5" fill="#1C1C1C"/>
<ellipse cx="9.35549" cy="45.5" rx="2.35549" ry="2.5" fill="#181818"/>
<ellipse cx="9.35549" cy="45.5" rx="2.35549" ry="2.5" fill="#3D3D3D"/>
<ellipse cx="9.35549" cy="45.5" rx="2.35549" ry="2.5" fill="#787878"/>
</g>
<g id="Ellipse 5_3">
<ellipse cx="29.1416" cy="45.5" rx="2.35549" ry="2.5" fill="#0B0B0B"/>
<ellipse cx="29.1416" cy="45.5" rx="2.35549" ry="2.5" fill="#1C1C1C"/>
<ellipse cx="29.1416" cy="45.5" rx="2.35549" ry="2.5" fill="#181818"/>
<ellipse cx="29.1416" cy="45.5" rx="2.35549" ry="2.5" fill="#3D3D3D"/>
<ellipse cx="29.1416" cy="45.5" rx="2.35549" ry="2.5" fill="#787878"/>
</g>
<g id="Ellipse 4_3">
<ellipse cx="48.9278" cy="45.5" rx="2.35549" ry="2.5" fill="#0B0B0B"/>
<ellipse cx="48.9278" cy="45.5" rx="2.35549" ry="2.5" fill="#1C1C1C"/>
<ellipse cx="48.9278" cy="45.5" rx="2.35549" ry="2.5" fill="#181818"/>
<ellipse cx="48.9278" cy="45.5" rx="2.35549" ry="2.5" fill="#3D3D3D"/>
<ellipse cx="48.9278" cy="45.5" rx="2.35549" ry="2.5" fill="#787878"/>
</g>
<g id="Ellipse 3_3">
<ellipse cx="68.7139" cy="45.5" rx="2.35549" ry="2.5" fill="#0B0B0B"/>
<ellipse cx="68.7139" cy="45.5" rx="2.35549" ry="2.5" fill="#1C1C1C"/>
<ellipse cx="68.7139" cy="45.5" rx="2.35549" ry="2.5" fill="#181818"/>
<ellipse cx="68.7139" cy="45.5" rx="2.35549" ry="2.5" fill="#3D3D3D"/>
<ellipse cx="68.7139" cy="45.5" rx="2.35549" ry="2.5" fill="#787878"/>
</g>
<g id="Ellipse 6_3">
<ellipse cx="88.5" cy="45.5" rx="2.35549" ry="2.5" fill="#0B0B0B"/>
<ellipse cx="88.5" cy="45.5" rx="2.35549" ry="2.5" fill="#1C1C1C"/>
<ellipse cx="88.5" cy="45.5" rx="2.35549" ry="2.5" fill="#181818"/>
<ellipse cx="88.5" cy="45.5" rx="2.35549" ry="2.5" fill="#3D3D3D"/>
<ellipse cx="88.5" cy="45.5" rx="2.35549" ry="2.5" fill="#787878"/>
</g>
<g id="Ellipse 7_3">
<ellipse cx="108.286" cy="45.5" rx="2.35549" ry="2.5" fill="#0B0B0B"/>
<ellipse cx="108.286" cy="45.5" rx="2.35549" ry="2.5" fill="#1C1C1C"/>
<ellipse cx="108.286" cy="45.5" rx="2.35549" ry="2.5" fill="#181818"/>
<ellipse cx="108.286" cy="45.5" rx="2.35549" ry="2.5" fill="#3D3D3D"/>
<ellipse cx="108.286" cy="45.5" rx="2.35549" ry="2.5" fill="#787878"/>
</g>
<g id="Ellipse 8_3">
<ellipse cx="128.072" cy="45.5" rx="2.35549" ry="2.5" fill="#0B0B0B"/>
<ellipse cx="128.072" cy="45.5" rx="2.35549" ry="2.5" fill="#1C1C1C"/>
<ellipse cx="128.072" cy="45.5" rx="2.35549" ry="2.5" fill="#181818"/>
<ellipse cx="128.072" cy="45.5" rx="2.35549" ry="2.5" fill="#3D3D3D"/>
<ellipse cx="128.072" cy="45.5" rx="2.35549" ry="2.5" fill="#787878"/>
</g>
<g id="Ellipse 9_3">
<ellipse cx="147.858" cy="45.5" rx="2.35549" ry="2.5" fill="#0B0B0B"/>
<ellipse cx="147.858" cy="45.5" rx="2.35549" ry="2.5" fill="#1C1C1C"/>
<ellipse cx="147.858" cy="45.5" rx="2.35549" ry="2.5" fill="#181818"/>
<ellipse cx="147.858" cy="45.5" rx="2.35549" ry="2.5" fill="#3D3D3D"/>
<ellipse cx="147.858" cy="45.5" rx="2.35549" ry="2.5" fill="#787878"/>
</g>
<g id="Ellipse 10_3">
<ellipse cx="167.645" cy="45.5" rx="2.35549" ry="2.5" fill="#0B0B0B"/>
<ellipse cx="167.645" cy="45.5" rx="2.35549" ry="2.5" fill="#1C1C1C"/>
<ellipse cx="167.645" cy="45.5" rx="2.35549" ry="2.5" fill="#181818"/>
<ellipse cx="167.645" cy="45.5" rx="2.35549" ry="2.5" fill="#3D3D3D"/>
<ellipse cx="167.645" cy="45.5" rx="2.35549" ry="2.5" fill="#787878"/>
</g>
</g>
<g id="Group 7">
<g id="Ellipse 2_4">
<ellipse cx="9.35549" cy="63.5" rx="2.35549" ry="2.5" fill="#0B0B0B"/>
<ellipse cx="9.35549" cy="63.5" rx="2.35549" ry="2.5" fill="#1C1C1C"/>
<ellipse cx="9.35549" cy="63.5" rx="2.35549" ry="2.5" fill="#181818"/>
<ellipse cx="9.35549" cy="63.5" rx="2.35549" ry="2.5" fill="#3D3D3D"/>
<ellipse cx="9.35549" cy="63.5" rx="2.35549" ry="2.5" fill="#787878"/>
</g>
<g id="Ellipse 5_4">
<ellipse cx="29.1416" cy="63.5" rx="2.35549" ry="2.5" fill="#0B0B0B"/>
<ellipse cx="29.1416" cy="63.5" rx="2.35549" ry="2.5" fill="#1C1C1C"/>
<ellipse cx="29.1416" cy="63.5" rx="2.35549" ry="2.5" fill="#181818"/>
<ellipse cx="29.1416" cy="63.5" rx="2.35549" ry="2.5" fill="#3D3D3D"/>
<ellipse cx="29.1416" cy="63.5" rx="2.35549" ry="2.5" fill="#787878"/>
</g>
<g id="Ellipse 4_4">
<ellipse cx="48.9278" cy="63.5" rx="2.35549" ry="2.5" fill="#0B0B0B"/>
<ellipse cx="48.9278" cy="63.5" rx="2.35549" ry="2.5" fill="#1C1C1C"/>
<ellipse cx="48.9278" cy="63.5" rx="2.35549" ry="2.5" fill="#181818"/>
<ellipse cx="48.9278" cy="63.5" rx="2.35549" ry="2.5" fill="#3D3D3D"/>
<ellipse cx="48.9278" cy="63.5" rx="2.35549" ry="2.5" fill="#787878"/>
</g>
<g id="Ellipse 3_4">
<ellipse cx="68.7139" cy="63.5" rx="2.35549" ry="2.5" fill="#0B0B0B"/>
<ellipse cx="68.7139" cy="63.5" rx="2.35549" ry="2.5" fill="#1C1C1C"/>
<ellipse cx="68.7139" cy="63.5" rx="2.35549" ry="2.5" fill="#181818"/>
<ellipse cx="68.7139" cy="63.5" rx="2.35549" ry="2.5" fill="#3D3D3D"/>
<ellipse cx="68.7139" cy="63.5" rx="2.35549" ry="2.5" fill="#787878"/>
</g>
<g id="Ellipse 6_4">
<ellipse cx="88.5" cy="63.5" rx="2.35549" ry="2.5" fill="#0B0B0B"/>
<ellipse cx="88.5" cy="63.5" rx="2.35549" ry="2.5" fill="#1C1C1C"/>
<ellipse cx="88.5" cy="63.5" rx="2.35549" ry="2.5" fill="#181818"/>
<ellipse cx="88.5" cy="63.5" rx="2.35549" ry="2.5" fill="#3D3D3D"/>
<ellipse cx="88.5" cy="63.5" rx="2.35549" ry="2.5" fill="#787878"/>
</g>
<g id="Ellipse 7_4">
<ellipse cx="108.286" cy="63.5" rx="2.35549" ry="2.5" fill="#0B0B0B"/>
<ellipse cx="108.286" cy="63.5" rx="2.35549" ry="2.5" fill="#1C1C1C"/>
<ellipse cx="108.286" cy="63.5" rx="2.35549" ry="2.5" fill="#181818"/>
<ellipse cx="108.286" cy="63.5" rx="2.35549" ry="2.5" fill="#3D3D3D"/>
<ellipse cx="108.286" cy="63.5" rx="2.35549" ry="2.5" fill="#787878"/>
</g>
<g id="Ellipse 8_4">
<ellipse cx="128.072" cy="63.5" rx="2.35549" ry="2.5" fill="#0B0B0B"/>
<ellipse cx="128.072" cy="63.5" rx="2.35549" ry="2.5" fill="#1C1C1C"/>
<ellipse cx="128.072" cy="63.5" rx="2.35549" ry="2.5" fill="#181818"/>
<ellipse cx="128.072" cy="63.5" rx="2.35549" ry="2.5" fill="#3D3D3D"/>
<ellipse cx="128.072" cy="63.5" rx="2.35549" ry="2.5" fill="#787878"/>
</g>
<g id="Ellipse 9_4">
<ellipse cx="147.858" cy="63.5" rx="2.35549" ry="2.5" fill="#0B0B0B"/>
<ellipse cx="147.858" cy="63.5" rx="2.35549" ry="2.5" fill="#1C1C1C"/>
<ellipse cx="147.858" cy="63.5" rx="2.35549" ry="2.5" fill="#181818"/>
<ellipse cx="147.858" cy="63.5" rx="2.35549" ry="2.5" fill="#3D3D3D"/>
<ellipse cx="147.858" cy="63.5" rx="2.35549" ry="2.5" fill="#787878"/>
</g>
<g id="Ellipse 10_4">
<ellipse cx="167.645" cy="63.5" rx="2.35549" ry="2.5" fill="#0B0B0B"/>
<ellipse cx="167.645" cy="63.5" rx="2.35549" ry="2.5" fill="#1C1C1C"/>
<ellipse cx="167.645" cy="63.5" rx="2.35549" ry="2.5" fill="#181818"/>
<ellipse cx="167.645" cy="63.5" rx="2.35549" ry="2.5" fill="#3D3D3D"/>
<ellipse cx="167.645" cy="63.5" rx="2.35549" ry="2.5" fill="#787878"/>
</g>
</g>
<g id="Group 8">
<g id="Ellipse 2_5">
<ellipse cx="9.35549" cy="81.5" rx="2.35549" ry="2.5" fill="#0B0B0B"/>
<ellipse cx="9.35549" cy="81.5" rx="2.35549" ry="2.5" fill="#1C1C1C"/>
<ellipse cx="9.35549" cy="81.5" rx="2.35549" ry="2.5" fill="#181818"/>
<ellipse cx="9.35549" cy="81.5" rx="2.35549" ry="2.5" fill="#3D3D3D"/>
<ellipse cx="9.35549" cy="81.5" rx="2.35549" ry="2.5" fill="#787878"/>
</g>
<g id="Ellipse 5_5">
<ellipse cx="29.1416" cy="81.5" rx="2.35549" ry="2.5" fill="#0B0B0B"/>
<ellipse cx="29.1416" cy="81.5" rx="2.35549" ry="2.5" fill="#1C1C1C"/>
<ellipse cx="29.1416" cy="81.5" rx="2.35549" ry="2.5" fill="#181818"/>
<ellipse cx="29.1416" cy="81.5" rx="2.35549" ry="2.5" fill="#3D3D3D"/>
<ellipse cx="29.1416" cy="81.5" rx="2.35549" ry="2.5" fill="#787878"/>
</g>
<g id="Ellipse 4_5">
<ellipse cx="48.9278" cy="81.5" rx="2.35549" ry="2.5" fill="#0B0B0B"/>
<ellipse cx="48.9278" cy="81.5" rx="2.35549" ry="2.5" fill="#1C1C1C"/>
<ellipse cx="48.9278" cy="81.5" rx="2.35549" ry="2.5" fill="#181818"/>
<ellipse cx="48.9278" cy="81.5" rx="2.35549" ry="2.5" fill="#3D3D3D"/>
<ellipse cx="48.9278" cy="81.5" rx="2.35549" ry="2.5" fill="#787878"/>
</g>
<g id="Ellipse 3_5">
<ellipse cx="68.7139" cy="81.5" rx="2.35549" ry="2.5" fill="#0B0B0B"/>
<ellipse cx="68.7139" cy="81.5" rx="2.35549" ry="2.5" fill="#1C1C1C"/>
<ellipse cx="68.7139" cy="81.5" rx="2.35549" ry="2.5" fill="#181818"/>
<ellipse cx="68.7139" cy="81.5" rx="2.35549" ry="2.5" fill="#3D3D3D"/>
<ellipse cx="68.7139" cy="81.5" rx="2.35549" ry="2.5" fill="#787878"/>
</g>
<g id="Ellipse 6_5">
<ellipse cx="88.5" cy="81.5" rx="2.35549" ry="2.5" fill="#0B0B0B"/>
<ellipse cx="88.5" cy="81.5" rx="2.35549" ry="2.5" fill="#1C1C1C"/>
<ellipse cx="88.5" cy="81.5" rx="2.35549" ry="2.5" fill="#181818"/>
<ellipse cx="88.5" cy="81.5" rx="2.35549" ry="2.5" fill="#3D3D3D"/>
<ellipse cx="88.5" cy="81.5" rx="2.35549" ry="2.5" fill="#787878"/>
</g>
<g id="Ellipse 7_5">
<ellipse cx="108.286" cy="81.5" rx="2.35549" ry="2.5" fill="#0B0B0B"/>
<ellipse cx="108.286" cy="81.5" rx="2.35549" ry="2.5" fill="#1C1C1C"/>
<ellipse cx="108.286" cy="81.5" rx="2.35549" ry="2.5" fill="#181818"/>
<ellipse cx="108.286" cy="81.5" rx="2.35549" ry="2.5" fill="#3D3D3D"/>
<ellipse cx="108.286" cy="81.5" rx="2.35549" ry="2.5" fill="#787878"/>
</g>
<g id="Ellipse 8_5">
<ellipse cx="128.072" cy="81.5" rx="2.35549" ry="2.5" fill="#0B0B0B"/>
<ellipse cx="128.072" cy="81.5" rx="2.35549" ry="2.5" fill="#1C1C1C"/>
<ellipse cx="128.072" cy="81.5" rx="2.35549" ry="2.5" fill="#181818"/>
<ellipse cx="128.072" cy="81.5" rx="2.35549" ry="2.5" fill="#3D3D3D"/>
<ellipse cx="128.072" cy="81.5" rx="2.35549" ry="2.5" fill="#787878"/>
</g>
<g id="Ellipse 9_5">
<ellipse cx="147.858" cy="81.5" rx="2.35549" ry="2.5" fill="#0B0B0B"/>
<ellipse cx="147.858" cy="81.5" rx="2.35549" ry="2.5" fill="#1C1C1C"/>
<ellipse cx="147.858" cy="81.5" rx="2.35549" ry="2.5" fill="#181818"/>
<ellipse cx="147.858" cy="81.5" rx="2.35549" ry="2.5" fill="#3D3D3D"/>
<ellipse cx="147.858" cy="81.5" rx="2.35549" ry="2.5" fill="#787878"/>
</g>
<g id="Ellipse 10_5">
<ellipse cx="167.645" cy="81.5" rx="2.35549" ry="2.5" fill="#0B0B0B"/>
<ellipse cx="167.645" cy="81.5" rx="2.35549" ry="2.5" fill="#1C1C1C"/>
<ellipse cx="167.645" cy="81.5" rx="2.35549" ry="2.5" fill="#181818"/>
<ellipse cx="167.645" cy="81.5" rx="2.35549" ry="2.5" fill="#3D3D3D"/>
<ellipse cx="167.645" cy="81.5" rx="2.35549" ry="2.5" fill="#787878"/>
</g>
</g>
<g id="Group 9">
<g id="Ellipse 2_6">
<ellipse cx="9.35549" cy="99.5" rx="2.35549" ry="2.5" fill="#0B0B0B"/>
<ellipse cx="9.35549" cy="99.5" rx="2.35549" ry="2.5" fill="#1C1C1C"/>
<ellipse cx="9.35549" cy="99.5" rx="2.35549" ry="2.5" fill="#181818"/>
<ellipse cx="9.35549" cy="99.5" rx="2.35549" ry="2.5" fill="#3D3D3D"/>
<ellipse cx="9.35549" cy="99.5" rx="2.35549" ry="2.5" fill="#787878"/>
</g>
<g id="Ellipse 5_6">
<ellipse cx="29.1416" cy="99.5" rx="2.35549" ry="2.5" fill="#0B0B0B"/>
<ellipse cx="29.1416" cy="99.5" rx="2.35549" ry="2.5" fill="#1C1C1C"/>
<ellipse cx="29.1416" cy="99.5" rx="2.35549" ry="2.5" fill="#181818"/>
<ellipse cx="29.1416" cy="99.5" rx="2.35549" ry="2.5" fill="#3D3D3D"/>
<ellipse cx="29.1416" cy="99.5" rx="2.35549" ry="2.5" fill="#787878"/>
</g>
<g id="Ellipse 4_6">
<ellipse cx="48.9278" cy="99.5" rx="2.35549" ry="2.5" fill="#0B0B0B"/>
<ellipse cx="48.9278" cy="99.5" rx="2.35549" ry="2.5" fill="#1C1C1C"/>
<ellipse cx="48.9278" cy="99.5" rx="2.35549" ry="2.5" fill="#181818"/>
<ellipse cx="48.9278" cy="99.5" rx="2.35549" ry="2.5" fill="#3D3D3D"/>
<ellipse cx="48.9278" cy="99.5" rx="2.35549" ry="2.5" fill="#787878"/>
</g>
<g id="Ellipse 3_6">
<ellipse cx="68.7139" cy="99.5" rx="2.35549" ry="2.5" fill="#0B0B0B"/>
<ellipse cx="68.7139" cy="99.5" rx="2.35549" ry="2.5" fill="#1C1C1C"/>
<ellipse cx="68.7139" cy="99.5" rx="2.35549" ry="2.5" fill="#181818"/>
<ellipse cx="68.7139" cy="99.5" rx="2.35549" ry="2.5" fill="#3D3D3D"/>
<ellipse cx="68.7139" cy="99.5" rx="2.35549" ry="2.5" fill="#787878"/>
</g>
<g id="Ellipse 6_6">
<ellipse cx="88.5" cy="99.5" rx="2.35549" ry="2.5" fill="#0B0B0B"/>
<ellipse cx="88.5" cy="99.5" rx="2.35549" ry="2.5" fill="#1C1C1C"/>
<ellipse cx="88.5" cy="99.5" rx="2.35549" ry="2.5" fill="#181818"/>
<ellipse cx="88.5" cy="99.5" rx="2.35549" ry="2.5" fill="#3D3D3D"/>
<ellipse cx="88.5" cy="99.5" rx="2.35549" ry="2.5" fill="#787878"/>
</g>
<g id="Ellipse 7_6">
<ellipse cx="108.286" cy="99.5" rx="2.35549" ry="2.5" fill="#0B0B0B"/>
<ellipse cx="108.286" cy="99.5" rx="2.35549" ry="2.5" fill="#1C1C1C"/>
<ellipse cx="108.286" cy="99.5" rx="2.35549" ry="2.5" fill="#181818"/>
<ellipse cx="108.286" cy="99.5" rx="2.35549" ry="2.5" fill="#3D3D3D"/>
<ellipse cx="108.286" cy="99.5" rx="2.35549" ry="2.5" fill="#787878"/>
</g>
<g id="Ellipse 8_6">
<ellipse cx="128.072" cy="99.5" rx="2.35549" ry="2.5" fill="#0B0B0B"/>
<ellipse cx="128.072" cy="99.5" rx="2.35549" ry="2.5" fill="#1C1C1C"/>
<ellipse cx="128.072" cy="99.5" rx="2.35549" ry="2.5" fill="#181818"/>
<ellipse cx="128.072" cy="99.5" rx="2.35549" ry="2.5" fill="#3D3D3D"/>
<ellipse cx="128.072" cy="99.5" rx="2.35549" ry="2.5" fill="#787878"/>
</g>
<g id="Ellipse 9_6">
<ellipse cx="147.858" cy="99.5" rx="2.35549" ry="2.5" fill="#0B0B0B"/>
<ellipse cx="147.858" cy="99.5" rx="2.35549" ry="2.5" fill="#1C1C1C"/>
<ellipse cx="147.858" cy="99.5" rx="2.35549" ry="2.5" fill="#181818"/>
<ellipse cx="147.858" cy="99.5" rx="2.35549" ry="2.5" fill="#3D3D3D"/>
<ellipse cx="147.858" cy="99.5" rx="2.35549" ry="2.5" fill="#787878"/>
</g>
<g id="Ellipse 10_6">
<ellipse cx="167.645" cy="99.5" rx="2.35549" ry="2.5" fill="#0B0B0B"/>
<ellipse cx="167.645" cy="99.5" rx="2.35549" ry="2.5" fill="#1C1C1C"/>
<ellipse cx="167.645" cy="99.5" rx="2.35549" ry="2.5" fill="#181818"/>
<ellipse cx="167.645" cy="99.5" rx="2.35549" ry="2.5" fill="#3D3D3D"/>
<ellipse cx="167.645" cy="99.5" rx="2.35549" ry="2.5" fill="#787878"/>
</g>
</g>
<g id="Group 10">
<g id="Ellipse 2_7">
<ellipse cx="9.35549" cy="117.5" rx="2.35549" ry="2.5" fill="#0B0B0B"/>
<ellipse cx="9.35549" cy="117.5" rx="2.35549" ry="2.5" fill="#1C1C1C"/>
<ellipse cx="9.35549" cy="117.5" rx="2.35549" ry="2.5" fill="#181818"/>
<ellipse cx="9.35549" cy="117.5" rx="2.35549" ry="2.5" fill="#3D3D3D"/>
<ellipse cx="9.35549" cy="117.5" rx="2.35549" ry="2.5" fill="#787878"/>
</g>
<g id="Ellipse 5_7">
<ellipse cx="29.1416" cy="117.5" rx="2.35549" ry="2.5" fill="#0B0B0B"/>
<ellipse cx="29.1416" cy="117.5" rx="2.35549" ry="2.5" fill="#1C1C1C"/>
<ellipse cx="29.1416" cy="117.5" rx="2.35549" ry="2.5" fill="#181818"/>
<ellipse cx="29.1416" cy="117.5" rx="2.35549" ry="2.5" fill="#3D3D3D"/>
<ellipse cx="29.1416" cy="117.5" rx="2.35549" ry="2.5" fill="#787878"/>
</g>
<g id="Ellipse 4_7">
<ellipse cx="48.9278" cy="117.5" rx="2.35549" ry="2.5" fill="#0B0B0B"/>
<ellipse cx="48.9278" cy="117.5" rx="2.35549" ry="2.5" fill="#1C1C1C"/>
<ellipse cx="48.9278" cy="117.5" rx="2.35549" ry="2.5" fill="#181818"/>
<ellipse cx="48.9278" cy="117.5" rx="2.35549" ry="2.5" fill="#3D3D3D"/>
<ellipse cx="48.9278" cy="117.5" rx="2.35549" ry="2.5" fill="#787878"/>
</g>
<g id="Ellipse 3_7">
<ellipse cx="68.7139" cy="117.5" rx="2.35549" ry="2.5" fill="#0B0B0B"/>
<ellipse cx="68.7139" cy="117.5" rx="2.35549" ry="2.5" fill="#1C1C1C"/>
<ellipse cx="68.7139" cy="117.5" rx="2.35549" ry="2.5" fill="#181818"/>
<ellipse cx="68.7139" cy="117.5" rx="2.35549" ry="2.5" fill="#3D3D3D"/>
<ellipse cx="68.7139" cy="117.5" rx="2.35549" ry="2.5" fill="#787878"/>
</g>
<g id="Ellipse 6_7">
<ellipse cx="88.5" cy="117.5" rx="2.35549" ry="2.5" fill="#0B0B0B"/>
<ellipse cx="88.5" cy="117.5" rx="2.35549" ry="2.5" fill="#1C1C1C"/>
<ellipse cx="88.5" cy="117.5" rx="2.35549" ry="2.5" fill="#181818"/>
<ellipse cx="88.5" cy="117.5" rx="2.35549" ry="2.5" fill="#3D3D3D"/>
<ellipse cx="88.5" cy="117.5" rx="2.35549" ry="2.5" fill="#787878"/>
</g>
<g id="Ellipse 7_7">
<ellipse cx="108.286" cy="117.5" rx="2.35549" ry="2.5" fill="#0B0B0B"/>
<ellipse cx="108.286" cy="117.5" rx="2.35549" ry="2.5" fill="#1C1C1C"/>
<ellipse cx="108.286" cy="117.5" rx="2.35549" ry="2.5" fill="#181818"/>
<ellipse cx="108.286" cy="117.5" rx="2.35549" ry="2.5" fill="#3D3D3D"/>
<ellipse cx="108.286" cy="117.5" rx="2.35549" ry="2.5" fill="#787878"/>
</g>
<g id="Ellipse 8_7">
<ellipse cx="128.072" cy="117.5" rx="2.35549" ry="2.5" fill="#0B0B0B"/>
<ellipse cx="128.072" cy="117.5" rx="2.35549" ry="2.5" fill="#1C1C1C"/>
<ellipse cx="128.072" cy="117.5" rx="2.35549" ry="2.5" fill="#181818"/>
<ellipse cx="128.072" cy="117.5" rx="2.35549" ry="2.5" fill="#3D3D3D"/>
<ellipse cx="128.072" cy="117.5" rx="2.35549" ry="2.5" fill="#787878"/>
</g>
<g id="Ellipse 9_7">
<ellipse cx="147.858" cy="117.5" rx="2.35549" ry="2.5" fill="#0B0B0B"/>
<ellipse cx="147.858" cy="117.5" rx="2.35549" ry="2.5" fill="#1C1C1C"/>
<ellipse cx="147.858" cy="117.5" rx="2.35549" ry="2.5" fill="#181818"/>
<ellipse cx="147.858" cy="117.5" rx="2.35549" ry="2.5" fill="#3D3D3D"/>
<ellipse cx="147.858" cy="117.5" rx="2.35549" ry="2.5" fill="#787878"/>
</g>
<g id="Ellipse 10_7">
<ellipse cx="167.645" cy="117.5" rx="2.35549" ry="2.5" fill="#0B0B0B"/>
<ellipse cx="167.645" cy="117.5" rx="2.35549" ry="2.5" fill="#1C1C1C"/>
<ellipse cx="167.645" cy="117.5" rx="2.35549" ry="2.5" fill="#181818"/>
<ellipse cx="167.645" cy="117.5" rx="2.35549" ry="2.5" fill="#3D3D3D"/>
<ellipse cx="167.645" cy="117.5" rx="2.35549" ry="2.5" fill="#787878"/>
</g>
</g>
<g id="Group 11">
<g id="Ellipse 2_8">
<ellipse cx="9.35549" cy="135.5" rx="2.35549" ry="2.5" fill="#0B0B0B"/>
<ellipse cx="9.35549" cy="135.5" rx="2.35549" ry="2.5" fill="#1C1C1C"/>
<ellipse cx="9.35549" cy="135.5" rx="2.35549" ry="2.5" fill="#181818"/>
<ellipse cx="9.35549" cy="135.5" rx="2.35549" ry="2.5" fill="#3D3D3D"/>
<ellipse cx="9.35549" cy="135.5" rx="2.35549" ry="2.5" fill="#787878"/>
</g>
<g id="Ellipse 5_8">
<ellipse cx="29.1416" cy="135.5" rx="2.35549" ry="2.5" fill="#0B0B0B"/>
<ellipse cx="29.1416" cy="135.5" rx="2.35549" ry="2.5" fill="#1C1C1C"/>
<ellipse cx="29.1416" cy="135.5" rx="2.35549" ry="2.5" fill="#181818"/>
<ellipse cx="29.1416" cy="135.5" rx="2.35549" ry="2.5" fill="#3D3D3D"/>
<ellipse cx="29.1416" cy="135.5" rx="2.35549" ry="2.5" fill="#787878"/>
</g>
<g id="Ellipse 4_8">
<ellipse cx="48.9278" cy="135.5" rx="2.35549" ry="2.5" fill="#0B0B0B"/>
<ellipse cx="48.9278" cy="135.5" rx="2.35549" ry="2.5" fill="#1C1C1C"/>
<ellipse cx="48.9278" cy="135.5" rx="2.35549" ry="2.5" fill="#181818"/>
<ellipse cx="48.9278" cy="135.5" rx="2.35549" ry="2.5" fill="#3D3D3D"/>
<ellipse cx="48.9278" cy="135.5" rx="2.35549" ry="2.5" fill="#787878"/>
</g>
<g id="Ellipse 3_8">
<ellipse cx="68.7139" cy="135.5" rx="2.35549" ry="2.5" fill="#0B0B0B"/>
<ellipse cx="68.7139" cy="135.5" rx="2.35549" ry="2.5" fill="#1C1C1C"/>
<ellipse cx="68.7139" cy="135.5" rx="2.35549" ry="2.5" fill="#181818"/>
<ellipse cx="68.7139" cy="135.5" rx="2.35549" ry="2.5" fill="#3D3D3D"/>
<ellipse cx="68.7139" cy="135.5" rx="2.35549" ry="2.5" fill="#787878"/>
</g>
<g id="Ellipse 6_8">
<ellipse cx="88.5" cy="135.5" rx="2.35549" ry="2.5" fill="#0B0B0B"/>
<ellipse cx="88.5" cy="135.5" rx="2.35549" ry="2.5" fill="#1C1C1C"/>
<ellipse cx="88.5" cy="135.5" rx="2.35549" ry="2.5" fill="#181818"/>
<ellipse cx="88.5" cy="135.5" rx="2.35549" ry="2.5" fill="#3D3D3D"/>
<ellipse cx="88.5" cy="135.5" rx="2.35549" ry="2.5" fill="#787878"/>
</g>
<g id="Ellipse 7_8">
<ellipse cx="108.286" cy="135.5" rx="2.35549" ry="2.5" fill="#0B0B0B"/>
<ellipse cx="108.286" cy="135.5" rx="2.35549" ry="2.5" fill="#1C1C1C"/>
<ellipse cx="108.286" cy="135.5" rx="2.35549" ry="2.5" fill="#181818"/>
<ellipse cx="108.286" cy="135.5" rx="2.35549" ry="2.5" fill="#3D3D3D"/>
<ellipse cx="108.286" cy="135.5" rx="2.35549" ry="2.5" fill="#787878"/>
</g>
<g id="Ellipse 8_8">
<ellipse cx="128.072" cy="135.5" rx="2.35549" ry="2.5" fill="#0B0B0B"/>
<ellipse cx="128.072" cy="135.5" rx="2.35549" ry="2.5" fill="#1C1C1C"/>
<ellipse cx="128.072" cy="135.5" rx="2.35549" ry="2.5" fill="#181818"/>
<ellipse cx="128.072" cy="135.5" rx="2.35549" ry="2.5" fill="#3D3D3D"/>
<ellipse cx="128.072" cy="135.5" rx="2.35549" ry="2.5" fill="#787878"/>
</g>
<g id="Ellipse 9_8">
<ellipse cx="147.858" cy="135.5" rx="2.35549" ry="2.5" fill="#0B0B0B"/>
<ellipse cx="147.858" cy="135.5" rx="2.35549" ry="2.5" fill="#1C1C1C"/>
<ellipse cx="147.858" cy="135.5" rx="2.35549" ry="2.5" fill="#181818"/>
<ellipse cx="147.858" cy="135.5" rx="2.35549" ry="2.5" fill="#3D3D3D"/>
<ellipse cx="147.858" cy="135.5" rx="2.35549" ry="2.5" fill="#787878"/>
</g>
<g id="Ellipse 10_8">
<ellipse cx="167.645" cy="135.5" rx="2.35549" ry="2.5" fill="#0B0B0B"/>
<ellipse cx="167.645" cy="135.5" rx="2.35549" ry="2.5" fill="#1C1C1C"/>
<ellipse cx="167.645" cy="135.5" rx="2.35549" ry="2.5" fill="#181818"/>
<ellipse cx="167.645" cy="135.5" rx="2.35549" ry="2.5" fill="#3D3D3D"/>
<ellipse cx="167.645" cy="135.5" rx="2.35549" ry="2.5" fill="#787878"/>
</g>
</g>
</g>
<path id="Arrow 1" d="M29 30.5C29.8284 30.5 30.5 29.8284 30.5 29V15.5C30.5 14.6716 29.8284 14 29 14C28.1716 14 27.5 14.6716 27.5 15.5V27.5H15.5C14.6716 27.5 14 28.1716 14 29C14 29.8284 14.6716 30.5 15.5 30.5H29ZM0.93934 3.06066L27.9393 30.0607L30.0607 27.9393L3.06066 0.93934L0.93934 3.06066Z" fill="white"/>
</g>
</svg>
