<svg width="163" height="133" viewBox="0 0 163 133" fill="none" xmlns="http://www.w3.org/2000/svg">
<g id="DOTS">
<g id="Group 5">
<g id="Ellipse 2">
<ellipse cx="2.35549" cy="2.5" rx="2.35549" ry="2.5" fill="#0B0B0B"/>
<ellipse cx="2.35549" cy="2.5" rx="2.35549" ry="2.5" fill="#1C1C1C"/>
<ellipse cx="2.35549" cy="2.5" rx="2.35549" ry="2.5" fill="#181818"/>
<ellipse cx="2.35549" cy="2.5" rx="2.35549" ry="2.5" fill="#3D3D3D"/>
<ellipse cx="2.35549" cy="2.5" rx="2.35549" ry="2.5" fill="#787878"/>
</g>
<g id="Ellipse 5">
<ellipse cx="22.1416" cy="2.5" rx="2.35549" ry="2.5" fill="#0B0B0B"/>
<ellipse cx="22.1416" cy="2.5" rx="2.35549" ry="2.5" fill="#1C1C1C"/>
<ellipse cx="22.1416" cy="2.5" rx="2.35549" ry="2.5" fill="#181818"/>
<ellipse cx="22.1416" cy="2.5" rx="2.35549" ry="2.5" fill="#3D3D3D"/>
<ellipse cx="22.1416" cy="2.5" rx="2.35549" ry="2.5" fill="#787878"/>
</g>
<g id="Ellipse 4">
<ellipse cx="41.9278" cy="2.5" rx="2.35549" ry="2.5" fill="#0B0B0B"/>
<ellipse cx="41.9278" cy="2.5" rx="2.35549" ry="2.5" fill="#1C1C1C"/>
<ellipse cx="41.9278" cy="2.5" rx="2.35549" ry="2.5" fill="#181818"/>
<ellipse cx="41.9278" cy="2.5" rx="2.35549" ry="2.5" fill="#3D3D3D"/>
<ellipse cx="41.9278" cy="2.5" rx="2.35549" ry="2.5" fill="#787878"/>
</g>
<g id="Ellipse 3">
<ellipse cx="61.7139" cy="2.5" rx="2.35549" ry="2.5" fill="#0B0B0B"/>
<ellipse cx="61.7139" cy="2.5" rx="2.35549" ry="2.5" fill="#1C1C1C"/>
<ellipse cx="61.7139" cy="2.5" rx="2.35549" ry="2.5" fill="#181818"/>
<ellipse cx="61.7139" cy="2.5" rx="2.35549" ry="2.5" fill="#3D3D3D"/>
<ellipse cx="61.7139" cy="2.5" rx="2.35549" ry="2.5" fill="#787878"/>
</g>
<g id="Ellipse 6">
<ellipse cx="81.5" cy="2.5" rx="2.35549" ry="2.5" fill="#0B0B0B"/>
<ellipse cx="81.5" cy="2.5" rx="2.35549" ry="2.5" fill="#1C1C1C"/>
<ellipse cx="81.5" cy="2.5" rx="2.35549" ry="2.5" fill="#181818"/>
<ellipse cx="81.5" cy="2.5" rx="2.35549" ry="2.5" fill="#3D3D3D"/>
<ellipse cx="81.5" cy="2.5" rx="2.35549" ry="2.5" fill="#787878"/>
</g>
<g id="Ellipse 7">
<ellipse cx="101.286" cy="2.5" rx="2.35549" ry="2.5" fill="#0B0B0B"/>
<ellipse cx="101.286" cy="2.5" rx="2.35549" ry="2.5" fill="#1C1C1C"/>
<ellipse cx="101.286" cy="2.5" rx="2.35549" ry="2.5" fill="#181818"/>
<ellipse cx="101.286" cy="2.5" rx="2.35549" ry="2.5" fill="#3D3D3D"/>
<ellipse cx="101.286" cy="2.5" rx="2.35549" ry="2.5" fill="#787878"/>
</g>
<g id="Ellipse 8">
<ellipse cx="121.072" cy="2.5" rx="2.35549" ry="2.5" fill="#0B0B0B"/>
<ellipse cx="121.072" cy="2.5" rx="2.35549" ry="2.5" fill="#1C1C1C"/>
<ellipse cx="121.072" cy="2.5" rx="2.35549" ry="2.5" fill="#181818"/>
<ellipse cx="121.072" cy="2.5" rx="2.35549" ry="2.5" fill="#3D3D3D"/>
<ellipse cx="121.072" cy="2.5" rx="2.35549" ry="2.5" fill="#787878"/>
</g>
<g id="Ellipse 9">
<ellipse cx="140.858" cy="2.5" rx="2.35549" ry="2.5" fill="#0B0B0B"/>
<ellipse cx="140.858" cy="2.5" rx="2.35549" ry="2.5" fill="#1C1C1C"/>
<ellipse cx="140.858" cy="2.5" rx="2.35549" ry="2.5" fill="#181818"/>
<ellipse cx="140.858" cy="2.5" rx="2.35549" ry="2.5" fill="#3D3D3D"/>
<ellipse cx="140.858" cy="2.5" rx="2.35549" ry="2.5" fill="#787878"/>
</g>
<g id="Ellipse 10">
<ellipse cx="160.645" cy="2.5" rx="2.35549" ry="2.5" fill="#0B0B0B"/>
<ellipse cx="160.645" cy="2.5" rx="2.35549" ry="2.5" fill="#1C1C1C"/>
<ellipse cx="160.645" cy="2.5" rx="2.35549" ry="2.5" fill="#181818"/>
<ellipse cx="160.645" cy="2.5" rx="2.35549" ry="2.5" fill="#3D3D3D"/>
<ellipse cx="160.645" cy="2.5" rx="2.35549" ry="2.5" fill="#787878"/>
</g>
</g>
<g id="Group 4">
<g id="Ellipse 2_2">
<ellipse cx="2.35549" cy="22.5" rx="2.35549" ry="2.5" fill="#0B0B0B"/>
<ellipse cx="2.35549" cy="22.5" rx="2.35549" ry="2.5" fill="#1C1C1C"/>
<ellipse cx="2.35549" cy="22.5" rx="2.35549" ry="2.5" fill="#181818"/>
<ellipse cx="2.35549" cy="22.5" rx="2.35549" ry="2.5" fill="#3D3D3D"/>
<ellipse cx="2.35549" cy="22.5" rx="2.35549" ry="2.5" fill="#787878"/>
</g>
<g id="Ellipse 5_2">
<ellipse cx="22.1416" cy="22.5" rx="2.35549" ry="2.5" fill="#0B0B0B"/>
<ellipse cx="22.1416" cy="22.5" rx="2.35549" ry="2.5" fill="#1C1C1C"/>
<ellipse cx="22.1416" cy="22.5" rx="2.35549" ry="2.5" fill="#181818"/>
<ellipse cx="22.1416" cy="22.5" rx="2.35549" ry="2.5" fill="#3D3D3D"/>
<ellipse cx="22.1416" cy="22.5" rx="2.35549" ry="2.5" fill="#787878"/>
</g>
<g id="Ellipse 4_2">
<ellipse cx="41.9278" cy="22.5" rx="2.35549" ry="2.5" fill="#0B0B0B"/>
<ellipse cx="41.9278" cy="22.5" rx="2.35549" ry="2.5" fill="#1C1C1C"/>
<ellipse cx="41.9278" cy="22.5" rx="2.35549" ry="2.5" fill="#181818"/>
<ellipse cx="41.9278" cy="22.5" rx="2.35549" ry="2.5" fill="#3D3D3D"/>
<ellipse cx="41.9278" cy="22.5" rx="2.35549" ry="2.5" fill="#787878"/>
</g>
<g id="Ellipse 3_2">
<ellipse cx="61.7139" cy="22.5" rx="2.35549" ry="2.5" fill="#0B0B0B"/>
<ellipse cx="61.7139" cy="22.5" rx="2.35549" ry="2.5" fill="#1C1C1C"/>
<ellipse cx="61.7139" cy="22.5" rx="2.35549" ry="2.5" fill="#181818"/>
<ellipse cx="61.7139" cy="22.5" rx="2.35549" ry="2.5" fill="#3D3D3D"/>
<ellipse cx="61.7139" cy="22.5" rx="2.35549" ry="2.5" fill="#787878"/>
</g>
<g id="Ellipse 6_2">
<ellipse cx="81.5" cy="22.5" rx="2.35549" ry="2.5" fill="#0B0B0B"/>
<ellipse cx="81.5" cy="22.5" rx="2.35549" ry="2.5" fill="#1C1C1C"/>
<ellipse cx="81.5" cy="22.5" rx="2.35549" ry="2.5" fill="#181818"/>
<ellipse cx="81.5" cy="22.5" rx="2.35549" ry="2.5" fill="#3D3D3D"/>
<ellipse cx="81.5" cy="22.5" rx="2.35549" ry="2.5" fill="#787878"/>
</g>
<g id="Ellipse 7_2">
<ellipse cx="101.286" cy="22.5" rx="2.35549" ry="2.5" fill="#0B0B0B"/>
<ellipse cx="101.286" cy="22.5" rx="2.35549" ry="2.5" fill="#1C1C1C"/>
<ellipse cx="101.286" cy="22.5" rx="2.35549" ry="2.5" fill="#181818"/>
<ellipse cx="101.286" cy="22.5" rx="2.35549" ry="2.5" fill="#3D3D3D"/>
<ellipse cx="101.286" cy="22.5" rx="2.35549" ry="2.5" fill="#787878"/>
</g>
<g id="Ellipse 8_2">
<ellipse cx="121.072" cy="22.5" rx="2.35549" ry="2.5" fill="#0B0B0B"/>
<ellipse cx="121.072" cy="22.5" rx="2.35549" ry="2.5" fill="#1C1C1C"/>
<ellipse cx="121.072" cy="22.5" rx="2.35549" ry="2.5" fill="#181818"/>
<ellipse cx="121.072" cy="22.5" rx="2.35549" ry="2.5" fill="#3D3D3D"/>
<ellipse cx="121.072" cy="22.5" rx="2.35549" ry="2.5" fill="#787878"/>
</g>
<g id="Ellipse 9_2">
<ellipse cx="140.858" cy="22.5" rx="2.35549" ry="2.5" fill="#0B0B0B"/>
<ellipse cx="140.858" cy="22.5" rx="2.35549" ry="2.5" fill="#1C1C1C"/>
<ellipse cx="140.858" cy="22.5" rx="2.35549" ry="2.5" fill="#181818"/>
<ellipse cx="140.858" cy="22.5" rx="2.35549" ry="2.5" fill="#3D3D3D"/>
<ellipse cx="140.858" cy="22.5" rx="2.35549" ry="2.5" fill="#787878"/>
</g>
<g id="Ellipse 10_2">
<ellipse cx="160.645" cy="22.5" rx="2.35549" ry="2.5" fill="#0B0B0B"/>
<ellipse cx="160.645" cy="22.5" rx="2.35549" ry="2.5" fill="#1C1C1C"/>
<ellipse cx="160.645" cy="22.5" rx="2.35549" ry="2.5" fill="#181818"/>
<ellipse cx="160.645" cy="22.5" rx="2.35549" ry="2.5" fill="#3D3D3D"/>
<ellipse cx="160.645" cy="22.5" rx="2.35549" ry="2.5" fill="#787878"/>
</g>
</g>
<g id="Group 6">
<g id="Ellipse 2_3">
<ellipse cx="2.35549" cy="40.5" rx="2.35549" ry="2.5" fill="#0B0B0B"/>
<ellipse cx="2.35549" cy="40.5" rx="2.35549" ry="2.5" fill="#1C1C1C"/>
<ellipse cx="2.35549" cy="40.5" rx="2.35549" ry="2.5" fill="#181818"/>
<ellipse cx="2.35549" cy="40.5" rx="2.35549" ry="2.5" fill="#3D3D3D"/>
<ellipse cx="2.35549" cy="40.5" rx="2.35549" ry="2.5" fill="#787878"/>
</g>
<g id="Ellipse 5_3">
<ellipse cx="22.1416" cy="40.5" rx="2.35549" ry="2.5" fill="#0B0B0B"/>
<ellipse cx="22.1416" cy="40.5" rx="2.35549" ry="2.5" fill="#1C1C1C"/>
<ellipse cx="22.1416" cy="40.5" rx="2.35549" ry="2.5" fill="#181818"/>
<ellipse cx="22.1416" cy="40.5" rx="2.35549" ry="2.5" fill="#3D3D3D"/>
<ellipse cx="22.1416" cy="40.5" rx="2.35549" ry="2.5" fill="#787878"/>
</g>
<g id="Ellipse 4_3">
<ellipse cx="41.9278" cy="40.5" rx="2.35549" ry="2.5" fill="#0B0B0B"/>
<ellipse cx="41.9278" cy="40.5" rx="2.35549" ry="2.5" fill="#1C1C1C"/>
<ellipse cx="41.9278" cy="40.5" rx="2.35549" ry="2.5" fill="#181818"/>
<ellipse cx="41.9278" cy="40.5" rx="2.35549" ry="2.5" fill="#3D3D3D"/>
<ellipse cx="41.9278" cy="40.5" rx="2.35549" ry="2.5" fill="#787878"/>
</g>
<g id="Ellipse 3_3">
<ellipse cx="61.7139" cy="40.5" rx="2.35549" ry="2.5" fill="#0B0B0B"/>
<ellipse cx="61.7139" cy="40.5" rx="2.35549" ry="2.5" fill="#1C1C1C"/>
<ellipse cx="61.7139" cy="40.5" rx="2.35549" ry="2.5" fill="#181818"/>
<ellipse cx="61.7139" cy="40.5" rx="2.35549" ry="2.5" fill="#3D3D3D"/>
<ellipse cx="61.7139" cy="40.5" rx="2.35549" ry="2.5" fill="#787878"/>
</g>
<g id="Ellipse 6_3">
<ellipse cx="81.5" cy="40.5" rx="2.35549" ry="2.5" fill="#0B0B0B"/>
<ellipse cx="81.5" cy="40.5" rx="2.35549" ry="2.5" fill="#1C1C1C"/>
<ellipse cx="81.5" cy="40.5" rx="2.35549" ry="2.5" fill="#181818"/>
<ellipse cx="81.5" cy="40.5" rx="2.35549" ry="2.5" fill="#3D3D3D"/>
<ellipse cx="81.5" cy="40.5" rx="2.35549" ry="2.5" fill="#787878"/>
</g>
<g id="Ellipse 7_3">
<ellipse cx="101.286" cy="40.5" rx="2.35549" ry="2.5" fill="#0B0B0B"/>
<ellipse cx="101.286" cy="40.5" rx="2.35549" ry="2.5" fill="#1C1C1C"/>
<ellipse cx="101.286" cy="40.5" rx="2.35549" ry="2.5" fill="#181818"/>
<ellipse cx="101.286" cy="40.5" rx="2.35549" ry="2.5" fill="#3D3D3D"/>
<ellipse cx="101.286" cy="40.5" rx="2.35549" ry="2.5" fill="#787878"/>
</g>
<g id="Ellipse 8_3">
<ellipse cx="121.072" cy="40.5" rx="2.35549" ry="2.5" fill="#0B0B0B"/>
<ellipse cx="121.072" cy="40.5" rx="2.35549" ry="2.5" fill="#1C1C1C"/>
<ellipse cx="121.072" cy="40.5" rx="2.35549" ry="2.5" fill="#181818"/>
<ellipse cx="121.072" cy="40.5" rx="2.35549" ry="2.5" fill="#3D3D3D"/>
<ellipse cx="121.072" cy="40.5" rx="2.35549" ry="2.5" fill="#787878"/>
</g>
<g id="Ellipse 9_3">
<ellipse cx="140.858" cy="40.5" rx="2.35549" ry="2.5" fill="#0B0B0B"/>
<ellipse cx="140.858" cy="40.5" rx="2.35549" ry="2.5" fill="#1C1C1C"/>
<ellipse cx="140.858" cy="40.5" rx="2.35549" ry="2.5" fill="#181818"/>
<ellipse cx="140.858" cy="40.5" rx="2.35549" ry="2.5" fill="#3D3D3D"/>
<ellipse cx="140.858" cy="40.5" rx="2.35549" ry="2.5" fill="#787878"/>
</g>
<g id="Ellipse 10_3">
<ellipse cx="160.645" cy="40.5" rx="2.35549" ry="2.5" fill="#0B0B0B"/>
<ellipse cx="160.645" cy="40.5" rx="2.35549" ry="2.5" fill="#1C1C1C"/>
<ellipse cx="160.645" cy="40.5" rx="2.35549" ry="2.5" fill="#181818"/>
<ellipse cx="160.645" cy="40.5" rx="2.35549" ry="2.5" fill="#3D3D3D"/>
<ellipse cx="160.645" cy="40.5" rx="2.35549" ry="2.5" fill="#787878"/>
</g>
</g>
<g id="Group 7">
<g id="Ellipse 2_4">
<ellipse cx="2.35549" cy="58.5" rx="2.35549" ry="2.5" fill="#0B0B0B"/>
<ellipse cx="2.35549" cy="58.5" rx="2.35549" ry="2.5" fill="#1C1C1C"/>
<ellipse cx="2.35549" cy="58.5" rx="2.35549" ry="2.5" fill="#181818"/>
<ellipse cx="2.35549" cy="58.5" rx="2.35549" ry="2.5" fill="#3D3D3D"/>
<ellipse cx="2.35549" cy="58.5" rx="2.35549" ry="2.5" fill="#787878"/>
</g>
<g id="Ellipse 5_4">
<ellipse cx="22.1416" cy="58.5" rx="2.35549" ry="2.5" fill="#0B0B0B"/>
<ellipse cx="22.1416" cy="58.5" rx="2.35549" ry="2.5" fill="#1C1C1C"/>
<ellipse cx="22.1416" cy="58.5" rx="2.35549" ry="2.5" fill="#181818"/>
<ellipse cx="22.1416" cy="58.5" rx="2.35549" ry="2.5" fill="#3D3D3D"/>
<ellipse cx="22.1416" cy="58.5" rx="2.35549" ry="2.5" fill="#787878"/>
</g>
<g id="Ellipse 4_4">
<ellipse cx="41.9278" cy="58.5" rx="2.35549" ry="2.5" fill="#0B0B0B"/>
<ellipse cx="41.9278" cy="58.5" rx="2.35549" ry="2.5" fill="#1C1C1C"/>
<ellipse cx="41.9278" cy="58.5" rx="2.35549" ry="2.5" fill="#181818"/>
<ellipse cx="41.9278" cy="58.5" rx="2.35549" ry="2.5" fill="#3D3D3D"/>
<ellipse cx="41.9278" cy="58.5" rx="2.35549" ry="2.5" fill="#787878"/>
</g>
<g id="Ellipse 3_4">
<ellipse cx="61.7139" cy="58.5" rx="2.35549" ry="2.5" fill="#0B0B0B"/>
<ellipse cx="61.7139" cy="58.5" rx="2.35549" ry="2.5" fill="#1C1C1C"/>
<ellipse cx="61.7139" cy="58.5" rx="2.35549" ry="2.5" fill="#181818"/>
<ellipse cx="61.7139" cy="58.5" rx="2.35549" ry="2.5" fill="#3D3D3D"/>
<ellipse cx="61.7139" cy="58.5" rx="2.35549" ry="2.5" fill="#787878"/>
</g>
<g id="Ellipse 6_4">
<ellipse cx="81.5" cy="58.5" rx="2.35549" ry="2.5" fill="#0B0B0B"/>
<ellipse cx="81.5" cy="58.5" rx="2.35549" ry="2.5" fill="#1C1C1C"/>
<ellipse cx="81.5" cy="58.5" rx="2.35549" ry="2.5" fill="#181818"/>
<ellipse cx="81.5" cy="58.5" rx="2.35549" ry="2.5" fill="#3D3D3D"/>
<ellipse cx="81.5" cy="58.5" rx="2.35549" ry="2.5" fill="#787878"/>
</g>
<g id="Ellipse 7_4">
<ellipse cx="101.286" cy="58.5" rx="2.35549" ry="2.5" fill="#0B0B0B"/>
<ellipse cx="101.286" cy="58.5" rx="2.35549" ry="2.5" fill="#1C1C1C"/>
<ellipse cx="101.286" cy="58.5" rx="2.35549" ry="2.5" fill="#181818"/>
<ellipse cx="101.286" cy="58.5" rx="2.35549" ry="2.5" fill="#3D3D3D"/>
<ellipse cx="101.286" cy="58.5" rx="2.35549" ry="2.5" fill="#787878"/>
</g>
<g id="Ellipse 8_4">
<ellipse cx="121.072" cy="58.5" rx="2.35549" ry="2.5" fill="#0B0B0B"/>
<ellipse cx="121.072" cy="58.5" rx="2.35549" ry="2.5" fill="#1C1C1C"/>
<ellipse cx="121.072" cy="58.5" rx="2.35549" ry="2.5" fill="#181818"/>
<ellipse cx="121.072" cy="58.5" rx="2.35549" ry="2.5" fill="#3D3D3D"/>
<ellipse cx="121.072" cy="58.5" rx="2.35549" ry="2.5" fill="#787878"/>
</g>
<g id="Ellipse 9_4">
<ellipse cx="140.858" cy="58.5" rx="2.35549" ry="2.5" fill="#0B0B0B"/>
<ellipse cx="140.858" cy="58.5" rx="2.35549" ry="2.5" fill="#1C1C1C"/>
<ellipse cx="140.858" cy="58.5" rx="2.35549" ry="2.5" fill="#181818"/>
<ellipse cx="140.858" cy="58.5" rx="2.35549" ry="2.5" fill="#3D3D3D"/>
<ellipse cx="140.858" cy="58.5" rx="2.35549" ry="2.5" fill="#787878"/>
</g>
<g id="Ellipse 10_4">
<ellipse cx="160.645" cy="58.5" rx="2.35549" ry="2.5" fill="#0B0B0B"/>
<ellipse cx="160.645" cy="58.5" rx="2.35549" ry="2.5" fill="#1C1C1C"/>
<ellipse cx="160.645" cy="58.5" rx="2.35549" ry="2.5" fill="#181818"/>
<ellipse cx="160.645" cy="58.5" rx="2.35549" ry="2.5" fill="#3D3D3D"/>
<ellipse cx="160.645" cy="58.5" rx="2.35549" ry="2.5" fill="#787878"/>
</g>
</g>
<g id="Group 8">
<g id="Ellipse 2_5">
<ellipse cx="2.35549" cy="76.5" rx="2.35549" ry="2.5" fill="#0B0B0B"/>
<ellipse cx="2.35549" cy="76.5" rx="2.35549" ry="2.5" fill="#1C1C1C"/>
<ellipse cx="2.35549" cy="76.5" rx="2.35549" ry="2.5" fill="#181818"/>
<ellipse cx="2.35549" cy="76.5" rx="2.35549" ry="2.5" fill="#3D3D3D"/>
<ellipse cx="2.35549" cy="76.5" rx="2.35549" ry="2.5" fill="#787878"/>
</g>
<g id="Ellipse 5_5">
<ellipse cx="22.1416" cy="76.5" rx="2.35549" ry="2.5" fill="#0B0B0B"/>
<ellipse cx="22.1416" cy="76.5" rx="2.35549" ry="2.5" fill="#1C1C1C"/>
<ellipse cx="22.1416" cy="76.5" rx="2.35549" ry="2.5" fill="#181818"/>
<ellipse cx="22.1416" cy="76.5" rx="2.35549" ry="2.5" fill="#3D3D3D"/>
<ellipse cx="22.1416" cy="76.5" rx="2.35549" ry="2.5" fill="#787878"/>
</g>
<g id="Ellipse 4_5">
<ellipse cx="41.9278" cy="76.5" rx="2.35549" ry="2.5" fill="#0B0B0B"/>
<ellipse cx="41.9278" cy="76.5" rx="2.35549" ry="2.5" fill="#1C1C1C"/>
<ellipse cx="41.9278" cy="76.5" rx="2.35549" ry="2.5" fill="#181818"/>
<ellipse cx="41.9278" cy="76.5" rx="2.35549" ry="2.5" fill="#3D3D3D"/>
<ellipse cx="41.9278" cy="76.5" rx="2.35549" ry="2.5" fill="#787878"/>
</g>
<g id="Ellipse 3_5">
<ellipse cx="61.7139" cy="76.5" rx="2.35549" ry="2.5" fill="#0B0B0B"/>
<ellipse cx="61.7139" cy="76.5" rx="2.35549" ry="2.5" fill="#1C1C1C"/>
<ellipse cx="61.7139" cy="76.5" rx="2.35549" ry="2.5" fill="#181818"/>
<ellipse cx="61.7139" cy="76.5" rx="2.35549" ry="2.5" fill="#3D3D3D"/>
<ellipse cx="61.7139" cy="76.5" rx="2.35549" ry="2.5" fill="#787878"/>
</g>
<g id="Ellipse 6_5">
<ellipse cx="81.5" cy="76.5" rx="2.35549" ry="2.5" fill="#0B0B0B"/>
<ellipse cx="81.5" cy="76.5" rx="2.35549" ry="2.5" fill="#1C1C1C"/>
<ellipse cx="81.5" cy="76.5" rx="2.35549" ry="2.5" fill="#181818"/>
<ellipse cx="81.5" cy="76.5" rx="2.35549" ry="2.5" fill="#3D3D3D"/>
<ellipse cx="81.5" cy="76.5" rx="2.35549" ry="2.5" fill="#787878"/>
</g>
<g id="Ellipse 7_5">
<ellipse cx="101.286" cy="76.5" rx="2.35549" ry="2.5" fill="#0B0B0B"/>
<ellipse cx="101.286" cy="76.5" rx="2.35549" ry="2.5" fill="#1C1C1C"/>
<ellipse cx="101.286" cy="76.5" rx="2.35549" ry="2.5" fill="#181818"/>
<ellipse cx="101.286" cy="76.5" rx="2.35549" ry="2.5" fill="#3D3D3D"/>
<ellipse cx="101.286" cy="76.5" rx="2.35549" ry="2.5" fill="#787878"/>
</g>
<g id="Ellipse 8_5">
<ellipse cx="121.072" cy="76.5" rx="2.35549" ry="2.5" fill="#0B0B0B"/>
<ellipse cx="121.072" cy="76.5" rx="2.35549" ry="2.5" fill="#1C1C1C"/>
<ellipse cx="121.072" cy="76.5" rx="2.35549" ry="2.5" fill="#181818"/>
<ellipse cx="121.072" cy="76.5" rx="2.35549" ry="2.5" fill="#3D3D3D"/>
<ellipse cx="121.072" cy="76.5" rx="2.35549" ry="2.5" fill="#787878"/>
</g>
<g id="Ellipse 9_5">
<ellipse cx="140.858" cy="76.5" rx="2.35549" ry="2.5" fill="#0B0B0B"/>
<ellipse cx="140.858" cy="76.5" rx="2.35549" ry="2.5" fill="#1C1C1C"/>
<ellipse cx="140.858" cy="76.5" rx="2.35549" ry="2.5" fill="#181818"/>
<ellipse cx="140.858" cy="76.5" rx="2.35549" ry="2.5" fill="#3D3D3D"/>
<ellipse cx="140.858" cy="76.5" rx="2.35549" ry="2.5" fill="#787878"/>
</g>
<g id="Ellipse 10_5">
<ellipse cx="160.645" cy="76.5" rx="2.35549" ry="2.5" fill="#0B0B0B"/>
<ellipse cx="160.645" cy="76.5" rx="2.35549" ry="2.5" fill="#1C1C1C"/>
<ellipse cx="160.645" cy="76.5" rx="2.35549" ry="2.5" fill="#181818"/>
<ellipse cx="160.645" cy="76.5" rx="2.35549" ry="2.5" fill="#3D3D3D"/>
<ellipse cx="160.645" cy="76.5" rx="2.35549" ry="2.5" fill="#787878"/>
</g>
</g>
<g id="Group 9">
<g id="Ellipse 2_6">
<ellipse cx="2.35549" cy="94.5" rx="2.35549" ry="2.5" fill="#0B0B0B"/>
<ellipse cx="2.35549" cy="94.5" rx="2.35549" ry="2.5" fill="#1C1C1C"/>
<ellipse cx="2.35549" cy="94.5" rx="2.35549" ry="2.5" fill="#181818"/>
<ellipse cx="2.35549" cy="94.5" rx="2.35549" ry="2.5" fill="#3D3D3D"/>
<ellipse cx="2.35549" cy="94.5" rx="2.35549" ry="2.5" fill="#787878"/>
</g>
<g id="Ellipse 5_6">
<ellipse cx="22.1416" cy="94.5" rx="2.35549" ry="2.5" fill="#0B0B0B"/>
<ellipse cx="22.1416" cy="94.5" rx="2.35549" ry="2.5" fill="#1C1C1C"/>
<ellipse cx="22.1416" cy="94.5" rx="2.35549" ry="2.5" fill="#181818"/>
<ellipse cx="22.1416" cy="94.5" rx="2.35549" ry="2.5" fill="#3D3D3D"/>
<ellipse cx="22.1416" cy="94.5" rx="2.35549" ry="2.5" fill="#787878"/>
</g>
<g id="Ellipse 4_6">
<ellipse cx="41.9278" cy="94.5" rx="2.35549" ry="2.5" fill="#0B0B0B"/>
<ellipse cx="41.9278" cy="94.5" rx="2.35549" ry="2.5" fill="#1C1C1C"/>
<ellipse cx="41.9278" cy="94.5" rx="2.35549" ry="2.5" fill="#181818"/>
<ellipse cx="41.9278" cy="94.5" rx="2.35549" ry="2.5" fill="#3D3D3D"/>
<ellipse cx="41.9278" cy="94.5" rx="2.35549" ry="2.5" fill="#787878"/>
</g>
<g id="Ellipse 3_6">
<ellipse cx="61.7139" cy="94.5" rx="2.35549" ry="2.5" fill="#0B0B0B"/>
<ellipse cx="61.7139" cy="94.5" rx="2.35549" ry="2.5" fill="#1C1C1C"/>
<ellipse cx="61.7139" cy="94.5" rx="2.35549" ry="2.5" fill="#181818"/>
<ellipse cx="61.7139" cy="94.5" rx="2.35549" ry="2.5" fill="#3D3D3D"/>
<ellipse cx="61.7139" cy="94.5" rx="2.35549" ry="2.5" fill="#787878"/>
</g>
<g id="Ellipse 6_6">
<ellipse cx="81.5" cy="94.5" rx="2.35549" ry="2.5" fill="#0B0B0B"/>
<ellipse cx="81.5" cy="94.5" rx="2.35549" ry="2.5" fill="#1C1C1C"/>
<ellipse cx="81.5" cy="94.5" rx="2.35549" ry="2.5" fill="#181818"/>
<ellipse cx="81.5" cy="94.5" rx="2.35549" ry="2.5" fill="#3D3D3D"/>
<ellipse cx="81.5" cy="94.5" rx="2.35549" ry="2.5" fill="#787878"/>
</g>
<g id="Ellipse 7_6">
<ellipse cx="101.286" cy="94.5" rx="2.35549" ry="2.5" fill="#0B0B0B"/>
<ellipse cx="101.286" cy="94.5" rx="2.35549" ry="2.5" fill="#1C1C1C"/>
<ellipse cx="101.286" cy="94.5" rx="2.35549" ry="2.5" fill="#181818"/>
<ellipse cx="101.286" cy="94.5" rx="2.35549" ry="2.5" fill="#3D3D3D"/>
<ellipse cx="101.286" cy="94.5" rx="2.35549" ry="2.5" fill="#787878"/>
</g>
<g id="Ellipse 8_6">
<ellipse cx="121.072" cy="94.5" rx="2.35549" ry="2.5" fill="#0B0B0B"/>
<ellipse cx="121.072" cy="94.5" rx="2.35549" ry="2.5" fill="#1C1C1C"/>
<ellipse cx="121.072" cy="94.5" rx="2.35549" ry="2.5" fill="#181818"/>
<ellipse cx="121.072" cy="94.5" rx="2.35549" ry="2.5" fill="#3D3D3D"/>
<ellipse cx="121.072" cy="94.5" rx="2.35549" ry="2.5" fill="#787878"/>
</g>
<g id="Ellipse 9_6">
<ellipse cx="140.858" cy="94.5" rx="2.35549" ry="2.5" fill="#0B0B0B"/>
<ellipse cx="140.858" cy="94.5" rx="2.35549" ry="2.5" fill="#1C1C1C"/>
<ellipse cx="140.858" cy="94.5" rx="2.35549" ry="2.5" fill="#181818"/>
<ellipse cx="140.858" cy="94.5" rx="2.35549" ry="2.5" fill="#3D3D3D"/>
<ellipse cx="140.858" cy="94.5" rx="2.35549" ry="2.5" fill="#787878"/>
</g>
<g id="Ellipse 10_6">
<ellipse cx="160.645" cy="94.5" rx="2.35549" ry="2.5" fill="#0B0B0B"/>
<ellipse cx="160.645" cy="94.5" rx="2.35549" ry="2.5" fill="#1C1C1C"/>
<ellipse cx="160.645" cy="94.5" rx="2.35549" ry="2.5" fill="#181818"/>
<ellipse cx="160.645" cy="94.5" rx="2.35549" ry="2.5" fill="#3D3D3D"/>
<ellipse cx="160.645" cy="94.5" rx="2.35549" ry="2.5" fill="#787878"/>
</g>
</g>
<g id="Group 10">
<g id="Ellipse 2_7">
<ellipse cx="2.35549" cy="112.5" rx="2.35549" ry="2.5" fill="#0B0B0B"/>
<ellipse cx="2.35549" cy="112.5" rx="2.35549" ry="2.5" fill="#1C1C1C"/>
<ellipse cx="2.35549" cy="112.5" rx="2.35549" ry="2.5" fill="#181818"/>
<ellipse cx="2.35549" cy="112.5" rx="2.35549" ry="2.5" fill="#3D3D3D"/>
<ellipse cx="2.35549" cy="112.5" rx="2.35549" ry="2.5" fill="#787878"/>
</g>
<g id="Ellipse 5_7">
<ellipse cx="22.1416" cy="112.5" rx="2.35549" ry="2.5" fill="#0B0B0B"/>
<ellipse cx="22.1416" cy="112.5" rx="2.35549" ry="2.5" fill="#1C1C1C"/>
<ellipse cx="22.1416" cy="112.5" rx="2.35549" ry="2.5" fill="#181818"/>
<ellipse cx="22.1416" cy="112.5" rx="2.35549" ry="2.5" fill="#3D3D3D"/>
<ellipse cx="22.1416" cy="112.5" rx="2.35549" ry="2.5" fill="#787878"/>
</g>
<g id="Ellipse 4_7">
<ellipse cx="41.9278" cy="112.5" rx="2.35549" ry="2.5" fill="#0B0B0B"/>
<ellipse cx="41.9278" cy="112.5" rx="2.35549" ry="2.5" fill="#1C1C1C"/>
<ellipse cx="41.9278" cy="112.5" rx="2.35549" ry="2.5" fill="#181818"/>
<ellipse cx="41.9278" cy="112.5" rx="2.35549" ry="2.5" fill="#3D3D3D"/>
<ellipse cx="41.9278" cy="112.5" rx="2.35549" ry="2.5" fill="#787878"/>
</g>
<g id="Ellipse 3_7">
<ellipse cx="61.7139" cy="112.5" rx="2.35549" ry="2.5" fill="#0B0B0B"/>
<ellipse cx="61.7139" cy="112.5" rx="2.35549" ry="2.5" fill="#1C1C1C"/>
<ellipse cx="61.7139" cy="112.5" rx="2.35549" ry="2.5" fill="#181818"/>
<ellipse cx="61.7139" cy="112.5" rx="2.35549" ry="2.5" fill="#3D3D3D"/>
<ellipse cx="61.7139" cy="112.5" rx="2.35549" ry="2.5" fill="#787878"/>
</g>
<g id="Ellipse 6_7">
<ellipse cx="81.5" cy="112.5" rx="2.35549" ry="2.5" fill="#0B0B0B"/>
<ellipse cx="81.5" cy="112.5" rx="2.35549" ry="2.5" fill="#1C1C1C"/>
<ellipse cx="81.5" cy="112.5" rx="2.35549" ry="2.5" fill="#181818"/>
<ellipse cx="81.5" cy="112.5" rx="2.35549" ry="2.5" fill="#3D3D3D"/>
<ellipse cx="81.5" cy="112.5" rx="2.35549" ry="2.5" fill="#787878"/>
</g>
<g id="Ellipse 7_7">
<ellipse cx="101.286" cy="112.5" rx="2.35549" ry="2.5" fill="#0B0B0B"/>
<ellipse cx="101.286" cy="112.5" rx="2.35549" ry="2.5" fill="#1C1C1C"/>
<ellipse cx="101.286" cy="112.5" rx="2.35549" ry="2.5" fill="#181818"/>
<ellipse cx="101.286" cy="112.5" rx="2.35549" ry="2.5" fill="#3D3D3D"/>
<ellipse cx="101.286" cy="112.5" rx="2.35549" ry="2.5" fill="#787878"/>
</g>
<g id="Ellipse 8_7">
<ellipse cx="121.072" cy="112.5" rx="2.35549" ry="2.5" fill="#0B0B0B"/>
<ellipse cx="121.072" cy="112.5" rx="2.35549" ry="2.5" fill="#1C1C1C"/>
<ellipse cx="121.072" cy="112.5" rx="2.35549" ry="2.5" fill="#181818"/>
<ellipse cx="121.072" cy="112.5" rx="2.35549" ry="2.5" fill="#3D3D3D"/>
<ellipse cx="121.072" cy="112.5" rx="2.35549" ry="2.5" fill="#787878"/>
</g>
<g id="Ellipse 9_7">
<ellipse cx="140.858" cy="112.5" rx="2.35549" ry="2.5" fill="#0B0B0B"/>
<ellipse cx="140.858" cy="112.5" rx="2.35549" ry="2.5" fill="#1C1C1C"/>
<ellipse cx="140.858" cy="112.5" rx="2.35549" ry="2.5" fill="#181818"/>
<ellipse cx="140.858" cy="112.5" rx="2.35549" ry="2.5" fill="#3D3D3D"/>
<ellipse cx="140.858" cy="112.5" rx="2.35549" ry="2.5" fill="#787878"/>
</g>
<g id="Ellipse 10_7">
<ellipse cx="160.645" cy="112.5" rx="2.35549" ry="2.5" fill="#0B0B0B"/>
<ellipse cx="160.645" cy="112.5" rx="2.35549" ry="2.5" fill="#1C1C1C"/>
<ellipse cx="160.645" cy="112.5" rx="2.35549" ry="2.5" fill="#181818"/>
<ellipse cx="160.645" cy="112.5" rx="2.35549" ry="2.5" fill="#3D3D3D"/>
<ellipse cx="160.645" cy="112.5" rx="2.35549" ry="2.5" fill="#787878"/>
</g>
</g>
<g id="Group 11">
<g id="Ellipse 2_8">
<ellipse cx="2.35549" cy="130.5" rx="2.35549" ry="2.5" fill="#0B0B0B"/>
<ellipse cx="2.35549" cy="130.5" rx="2.35549" ry="2.5" fill="#1C1C1C"/>
<ellipse cx="2.35549" cy="130.5" rx="2.35549" ry="2.5" fill="#181818"/>
<ellipse cx="2.35549" cy="130.5" rx="2.35549" ry="2.5" fill="#3D3D3D"/>
<ellipse cx="2.35549" cy="130.5" rx="2.35549" ry="2.5" fill="#787878"/>
</g>
<g id="Ellipse 5_8">
<ellipse cx="22.1416" cy="130.5" rx="2.35549" ry="2.5" fill="#0B0B0B"/>
<ellipse cx="22.1416" cy="130.5" rx="2.35549" ry="2.5" fill="#1C1C1C"/>
<ellipse cx="22.1416" cy="130.5" rx="2.35549" ry="2.5" fill="#181818"/>
<ellipse cx="22.1416" cy="130.5" rx="2.35549" ry="2.5" fill="#3D3D3D"/>
<ellipse cx="22.1416" cy="130.5" rx="2.35549" ry="2.5" fill="#787878"/>
</g>
<g id="Ellipse 4_8">
<ellipse cx="41.9278" cy="130.5" rx="2.35549" ry="2.5" fill="#0B0B0B"/>
<ellipse cx="41.9278" cy="130.5" rx="2.35549" ry="2.5" fill="#1C1C1C"/>
<ellipse cx="41.9278" cy="130.5" rx="2.35549" ry="2.5" fill="#181818"/>
<ellipse cx="41.9278" cy="130.5" rx="2.35549" ry="2.5" fill="#3D3D3D"/>
<ellipse cx="41.9278" cy="130.5" rx="2.35549" ry="2.5" fill="#787878"/>
</g>
<g id="Ellipse 3_8">
<ellipse cx="61.7139" cy="130.5" rx="2.35549" ry="2.5" fill="#0B0B0B"/>
<ellipse cx="61.7139" cy="130.5" rx="2.35549" ry="2.5" fill="#1C1C1C"/>
<ellipse cx="61.7139" cy="130.5" rx="2.35549" ry="2.5" fill="#181818"/>
<ellipse cx="61.7139" cy="130.5" rx="2.35549" ry="2.5" fill="#3D3D3D"/>
<ellipse cx="61.7139" cy="130.5" rx="2.35549" ry="2.5" fill="#787878"/>
</g>
<g id="Ellipse 6_8">
<ellipse cx="81.5" cy="130.5" rx="2.35549" ry="2.5" fill="#0B0B0B"/>
<ellipse cx="81.5" cy="130.5" rx="2.35549" ry="2.5" fill="#1C1C1C"/>
<ellipse cx="81.5" cy="130.5" rx="2.35549" ry="2.5" fill="#181818"/>
<ellipse cx="81.5" cy="130.5" rx="2.35549" ry="2.5" fill="#3D3D3D"/>
<ellipse cx="81.5" cy="130.5" rx="2.35549" ry="2.5" fill="#787878"/>
</g>
<g id="Ellipse 7_8">
<ellipse cx="101.286" cy="130.5" rx="2.35549" ry="2.5" fill="#0B0B0B"/>
<ellipse cx="101.286" cy="130.5" rx="2.35549" ry="2.5" fill="#1C1C1C"/>
<ellipse cx="101.286" cy="130.5" rx="2.35549" ry="2.5" fill="#181818"/>
<ellipse cx="101.286" cy="130.5" rx="2.35549" ry="2.5" fill="#3D3D3D"/>
<ellipse cx="101.286" cy="130.5" rx="2.35549" ry="2.5" fill="#787878"/>
</g>
<g id="Ellipse 8_8">
<ellipse cx="121.072" cy="130.5" rx="2.35549" ry="2.5" fill="#0B0B0B"/>
<ellipse cx="121.072" cy="130.5" rx="2.35549" ry="2.5" fill="#1C1C1C"/>
<ellipse cx="121.072" cy="130.5" rx="2.35549" ry="2.5" fill="#181818"/>
<ellipse cx="121.072" cy="130.5" rx="2.35549" ry="2.5" fill="#3D3D3D"/>
<ellipse cx="121.072" cy="130.5" rx="2.35549" ry="2.5" fill="#787878"/>
</g>
<g id="Ellipse 9_8">
<ellipse cx="140.858" cy="130.5" rx="2.35549" ry="2.5" fill="#0B0B0B"/>
<ellipse cx="140.858" cy="130.5" rx="2.35549" ry="2.5" fill="#1C1C1C"/>
<ellipse cx="140.858" cy="130.5" rx="2.35549" ry="2.5" fill="#181818"/>
<ellipse cx="140.858" cy="130.5" rx="2.35549" ry="2.5" fill="#3D3D3D"/>
<ellipse cx="140.858" cy="130.5" rx="2.35549" ry="2.5" fill="#787878"/>
</g>
<g id="Ellipse 10_8">
<ellipse cx="160.645" cy="130.5" rx="2.35549" ry="2.5" fill="#0B0B0B"/>
<ellipse cx="160.645" cy="130.5" rx="2.35549" ry="2.5" fill="#1C1C1C"/>
<ellipse cx="160.645" cy="130.5" rx="2.35549" ry="2.5" fill="#181818"/>
<ellipse cx="160.645" cy="130.5" rx="2.35549" ry="2.5" fill="#3D3D3D"/>
<ellipse cx="160.645" cy="130.5" rx="2.35549" ry="2.5" fill="#787878"/>
</g>
</g>
</g>
</svg>
